{"title":"In.Time.2011.R5.Line.AC3.XviD-TA","uid":6861267,"size":965572644,"categoryP":"video","categoryS":"movies","magnet":"?xt=urn:btih:5e6e0427325dbdeb2f2e4a7f6e5d722f7f2ca305&amp;dn=In.Time.2011.R5.Line.AC3.XviD-TA&amp;tr=udp%3A%2F%2Ftracker.openbittorrent.com%3A80&amp;tr=udp%3A%2F%2Fopen.demonii.com%3A1337&amp;tr=udp%3A%2F%2Ftracker.coppersurfer.tk%3A6969&amp;tr=udp%3A%2F%2Fexodus.desync.com%3A6969","seeders":0,"leechers":1,"uploader":"sceneline","files":70,"time":1322909991,"description":"- &lt;a href=&quot;\nhttp://www.Speed.Cd&quot; rel=&quot;nofollow&quot; target=&quot;_NEW&quot;&gt;\nhttp://www.Speed.Cd&lt;/a&gt;      fast  and The Hottest Private Tracker on the net\n\n   signup is open now\n\nPlease Seed back to make the speed Faster!!!\n\n------------------nfo--------------------------\n-In.Time.2011.R5.Line.AC3.XviD-TA\n\n[img]http://i.imgur.com/zJYZz.jpg[/img]\n\nPlot:\nIn a future where people stop aging at 25, but are engineered to live only one more year, having the means to buy your way out of the situation is a shot at immortal youth. Here, Will Salas finds himself accused of murder and on the run with a hostage - a connection that becomes an important part of the way against the system.\n &lt;a href=&quot;\nhttp://www.imdb.com/title/tt1637688/&quot; rel=&quot;nofollow&quot; target=&quot;_NEW&quot;&gt;\nhttp://www.imdb.com/title/tt1637688/&lt;/a&gt;\n\nGeneral\nComplete name                    : In.Time.2011.R5.Line.AC3.XviD-TA.avi\nFormat                           : AVI\nFormat/Info                      : Audio Video Interleave\nFile size                        : 923 MiB\nDuration                         : 1h 44mn\nOverall bit rate                 : 1 232 Kbps\nWriting library                  : VirtualDub build 32661/release\nSources                          : Video:Russian VOB'S / Audio:BHRG &quot;NOYK&quot; (THANKS)\n\nVideo\nID                               : 0\nFormat                           : MPEG-4 Visual\nFormat profile                   : Advanced Simple@L5\nFormat settings, BVOP            : 2\nFormat settings, QPel            : No\nFormat settings, GMC             : No warppoints\nFormat settings, Matrix          : Default (H.263)\nCodec ID                         : XVID\nCodec ID/Hint                    : XviD\nDuration                         : 1h 44mn\nBit rate                         : 774 Kbps\nWidth                            : 720 pixels\nHeight                           : 304 pixels\nDisplay aspect ratio             : 2.35:1\nFrame rate                       : 25.000 fps\nColor space                      : YUV\nChroma subsampling               : 4:2:0\nBit depth                        : 8 bits\nScan type                        : Progressive\nCompression mode                 : Lossy\nBits/(Pixel*Frame)               : 0.141\nStream size                      : 580 MiB (63%)\nWriting library                  : XviD 63\n\nAudio\nID                               : 1\nFormat                           : AC-3\nFormat/Info                      : Audio Coding 3\nMode extension                   : CM (complete main)\nCodec ID                         : 2000\nDuration                         : 1h 44mn\nBit rate mode                    : Constant\nBit rate                         : 448 Kbps\nChannel(s)                       : 6 channels\nChannel positions                : Front: L C R, Side: L R, LFE\nSampling rate                    : 48.0 KHz\nBit depth                        : 16 bits\nCompression mode                 : Lossy\nStream size                      : 336 MiB (36%)\nAlignment                        : Split accross interleaves\nInterleave, duration             : 40 ms (1.00 video frame)\nInterleave, preload duration     : 500 ms\n\nNotes: Just muxed BHRG'S FINE AC3 Line with out previouse Video. SOUNDS AWESOME! (Not Hollow and NO Buzz at all)\n\nGreets:\nAll groups (past and present) P2P and Scene\n\nScreens:\n        [IMG]http://i.imgur.com/w9AiK.png[/IMG]\n        [IMG]http://i.imgur.com/7qIAQ.png[/IMG]\n        [IMG]http://i.imgur.com/uopl8.png[/IMG]\n        [IMG]http://i.imgur.com/2Liz4.png[/IMG]\n        [IMG]http://i.imgur.com/hVdlA.png[/IMG]\n\nEnjoy,\nTA-rg\n[img]http://imageshack.us/m/221/9655/targ.png[/img]","torrent":{"xt":"urn:btih:5e6e0427325dbdeb2f2e4a7f6e5d722f7f2ca305","amp;dn":"In.Time.2011.R5.Line.AC3.XviD-TA","amp;tr":["udp%3A%2F%2Ftracker.openbittorrent.com%3A80","udp%3A%2F%2Fopen.demonii.com%3A1337","udp%3A%2F%2Ftracker.coppersurfer.tk%3A6969","udp%3A%2F%2Fexodus.desync.com%3A6969"],"infoHash":"5e6e0427325dbdeb2f2e4a7f6e5d722f7f2ca305","infoHashBuffer":{"type":"Buffer","data":[94,110,4,39,50,93,189,235,47,46,74,127,110,93,114,47,127,44,163,5]},"announce":[],"urlList":[]}}